# xmcd
#
# Track frame offsets:
#	150
#	10842
#	25572
#	43133
#	65770
#	78686
#	91556
#	106379
#	119862
#	134436
#	151312
#
# Disc length: 2247 seconds
#
# Revision: 1
# Processed by: cddbd v1.5.2PL0 Copyright (c) Steve Scherf et al.
# Submitted via: audiograbber 1.83.01
#
DISCID=8d08c50b
DTITLE=Jt Parker - This Could Be Serious
DYEAR=1999
DGENRE=Country
TTITLE0=It´s Only Make Belive
TTITLE1=This Could Be Serius
TTITLE2=New Orleans Ladies
TTITLE3=Love Invasion
TTITLE4=Beth
TTITLE5=Beth
TTITLE6=You Don´t Love Me Anymore
TTITLE7=Getting Over You
TTITLE8=Big Texas Moon
TTITLE9=Bad Dream
TTITLE10=Too Many Horses
EXTD=
EXTT0=
EXTT1=
EXTT2=
EXTT3=
EXTT4=
EXTT5=
EXTT6=
EXTT7=
EXTT8=
EXTT9=
EXTT10=
PLAYORDER=
